<?xml version="1.0" encoding="UTF-8" standalone="no"?>
<!-- Created with Inkscape (http://www.inkscape.org/) -->

<svg
   width="362.33286mm"
   height="335.54044mm"
   viewBox="0 0 362.33286 335.54044"
   version="1.1"
   id="svg5"
   inkscape:version="1.1.2 (0a00cf5339, 2022-02-04)"
   sodipodi:docname="texas.svg"
   xmlns:inkscape="http://www.inkscape.org/namespaces/inkscape"
   xmlns:sodipodi="http://sodipodi.sourceforge.net/DTD/sodipodi-0.dtd"
   xmlns="http://www.w3.org/2000/svg"
   xmlns:svg="http://www.w3.org/2000/svg">
  <sodipodi:namedview
     id="namedview7"
     pagecolor="#ffffff"
     bordercolor="#666666"
     borderopacity="1.0"
     inkscape:pageshadow="2"
     inkscape:pageopacity="0.0"
     inkscape:pagecheckerboard="0"
     inkscape:document-units="mm"
     showgrid="false"
     fit-margin-top="0"
     fit-margin-left="0"
     fit-margin-right="0"
     fit-margin-bottom="0"
     inkscape:zoom="0.26740451"
     inkscape:cx="925.56404"
     inkscape:cy="340.30839"
     inkscape:window-width="1920"
     inkscape:window-height="1001"
     inkscape:window-x="3840"
     inkscape:window-y="0"
     inkscape:window-maximized="1"
     inkscape:current-layer="layer1" />
  <defs
     id="defs2" />
  <g
     inkscape:label="Layer 1"
     inkscape:groupmode="layer"
     id="layer1"
     transform="translate(119.6252,-5.123393)">
    <path
       style="fill:#000000;stroke-width:0.264583"
       d="m 130.2048,340.25846 c -5.51148,-1.21251 -31.133964,-8.60867 -34.349734,-9.91537 -3.9434,-1.60234 -7.64047,-4.6964 -9.37344,-7.8446 -0.52068,-0.94589 -1.50567,-3.32714 -2.18887,-5.29167 -0.68321,-1.96453 -1.54234,-4.1643 -1.90918,-4.88839 -1.2848,-2.53595 -5.58698,-10.11163 -8.94383,-15.74911 -13.17501,-22.12607 -15.9126,-27.19557 -20.46312,-37.89381 -3.1077,-7.30623 -5.68608,-11.41651 -11.73612,-18.70901 -5.08322,-6.12711 -16.64649,-17.56082 -19.47748,-19.25922 -0.56864,-0.34114 -1.80995,-0.70288 -2.95621,-0.86149 -1.08678,-0.15037 -4.00004,-0.65679 -6.47389,-1.12537 -3.9073797,-0.7401 -5.0710797,-0.85279 -8.8635397,-0.8583 -3.86957004,-0.006 -4.57313,0.0632 -6.19176,0.60545 -3.69312,1.23728 -7.8629503,3.73304 -9.6733703,5.7898 -1.19288,1.35517 -1.61758,2.53247 -2.41531,6.69528 -1.15683,6.03676 -2.09486,8.43706 -4.16002,10.64488 -1.85927,1.98771 -3.31605,2.62062 -6.00892,2.61062 -3.35191,-0.0124 -4.5996,-0.51062 -14.80999,-5.91336 -9.97395,-5.27764 -15.0699,-8.52158 -17.54778,-11.17045 -2.88834,-3.08765 -4.10629,-5.57434 -7.9837,-16.30047 -4.25229,-11.76318 -5.04899,-13.61802 -7.10622,-16.54436 -1.67142,-2.37753 -2.54234,-3.04878 -6.78522,-5.22963 -1.89177,-0.97237 -4.45997,-2.53078 -5.7071,-3.46313 -2.79821,-2.09193 -7.51336,-6.94792 -10.9624,-11.28987 -4.207536,-5.29679 -4.853786,-5.86039 -7.541356,-6.57685 -1.96596,-0.52408 -5.21238,-2.36287 -6.95889,-3.94154 -1.81945,-1.64461 -4.42124,-4.50306 -7.32986,-8.05294 l -1.91269,-2.33438 0.0391,-2.14887 c 0.0215,-1.18187 0.10499,-2.21499 0.18557,-2.29582 0.24118,-0.24191 20.078516,-0.43207 52.226216,-0.50065 37.55021,-0.0801 41.52845,-0.15628 42.82907,-0.82009 1.93271,-0.98643 2.62569,-2.40645 2.81559,-5.76961 0.072,-1.27436 0.24842,-16.24733 0.39216,-33.27327 0.14373,-17.025938 0.32088,-34.528128 0.39367,-38.893748 0.0728,-4.36563 0.20171,-15.02172 0.2865,-23.68021 0.22076,-22.54202 0.56073,-40.4867601 0.77103,-40.6970301 0.30102,-0.30099 81.56674,-0.21811 81.85586,0.0835 0.35025,0.36537 0.60012,11.4540201 0.96882,42.9948001 0.0774,6.62119 0.20571,12.87198 0.28514,13.89062 0.19871,2.54848 1.08953,4.35533 2.66023,5.39572 0.80952,0.5362 5.02778,2.06754 12.7554,4.63053 15.86569,5.26213 18.2811,5.86717 26.494864,6.63675 8.50056,0.79645 15.16552,2.12918 36.38021,7.27462 9.11746,2.21135 10.86805,2.62563 11.78565,2.78905 0.57079,0.10165 2.84864,-0.149 5.82083,-0.6405 9.15557,-1.51404 11.9923,-1.73918 21.94873,-1.74195 10.34504,-0.003 14.2255,0.35744 23.01875,2.13746 7.58615,1.53566 18.87624,5.442631 21.57348,7.465569 2.46195,1.846458 2.30916,0.574363 2.54765,21.210309 0.11528,9.97261 0.32099,20.52068 0.45717,23.44013 0.2353,5.04419 0.29007,5.41911 1.10144,7.54063 1.46129,3.82079 7.81071,16.01984 10.34616,19.87789 l 2.39358,3.64217 -0.18336,6.95102 -0.18335,6.95102 -1.95604,11.90625 c -2.1046,12.81064 -2.55649,14.83121 -3.9818,17.80462 -1.10386,2.30285 -3.70093,5.18252 -5.61197,6.22264 -0.7203,0.39203 -3.16706,1.37133 -5.43729,2.17623 -5.36961,1.90379 -11.85347,4.67939 -13.52505,5.78982 -0.7276,0.48335 -2.87192,2.17415 -4.76515,3.75733 -3.54134,2.96142 -9.99095,8.13062 -12.56506,10.07057 -4.99232,3.7624 -20.41967,11.16234 -38.62916,18.52898 -0.94589,0.38267 -1.92255,0.88371 -2.17033,1.11342 -0.24778,0.22971 -1.22401,2.12434 -2.16937,4.21031 -1.94979,4.30234 -2.82294,5.77615 -7.70665,13.00838 -4.48646,6.64395 -6.05851,9.28084 -6.70872,11.25296 -0.28935,0.87765 -1.054,3.97823 -1.69924,6.89018 -0.71231,3.21479 -1.57024,6.27533 -2.18408,7.7915 -0.55605,1.37337 -1.0006,2.86266 -0.98793,3.30954 0.0127,0.44688 0.38585,1.99718 0.82929,3.44509 0.44344,1.44793 1.12199,4.18042 1.50791,6.07219 1.82203,8.93214 3.11304,12.32921 5.98527,15.74943 1.58203,1.88385 1.66569,2.05438 1.76398,3.59544 0.12647,1.98258 0.43238,1.8677 -5.51013,2.06915 -3.67044,0.12444 -4.72377,0.0692 -6.61459,-0.34676 z"
       id="path856" />
  </g>
</svg>
